<svg xmlns="http://www.w3.org/2000/svg" viewBox="0 0 220 44" preserveAspectRatio="xMidYMid meet" role="img" aria-labelledby="logoNavbarTitle logoNavbarDesc">
  <title id="logoNavbarTitle">HOSPEDAH</title>
  <desc id="logoNavbarDesc">Logo compacto com globo dourado e texto HOSPEDAH.</desc>
  <defs>
    <linearGradient id="goldNav" x1="0" y1="0" x2="0" y2="1">
      <stop offset="0%" stop-color="#F5E27A"/>
      <stop offset="35%" stop-color="#D4AF37"/>
      <stop offset="62%" stop-color="#8B6914"/>
      <stop offset="80%" stop-color="#D4AF37"/>
      <stop offset="100%" stop-color="#F5E27A"/>
    </linearGradient>
    <radialGradient id="globeNav" cx="38%" cy="30%" r="70%">
      <stop offset="0%" stop-color="#1a2f5e"/>
      <stop offset="100%" stop-color="#0B1C3D"/>
    </radialGradient>
    <clipPath id="globeClipNav">
      <circle cx="26" cy="22" r="18"/>
    </clipPath>
  </defs>

  <path fill="url(#goldNav)" d="M5 7 H13 V17 H22 V7 H30 V37 H22 V24 H13 V37 H5 Z M3 7 H15 L14 4 H4 Z M20 7 H32 L31 4 H21 Z M3 37 L4 40 H14 L15 37 Z M20 37 L21 40 H31 L32 37 Z"/>

  <circle cx="26" cy="22" r="18" fill="url(#globeNav)" stroke="#D4AF37" stroke-width="1.4"/>
  <g clip-path="url(#globeClipNav)" fill="none" stroke="#D4AF37" stroke-opacity="0.45" stroke-width="0.5">
    <ellipse cx="26" cy="22" rx="4" ry="18"/>
    <ellipse cx="26" cy="22" rx="8" ry="18"/>
    <ellipse cx="26" cy="22" rx="12" ry="18"/>
    <ellipse cx="26" cy="22" rx="16" ry="18"/>
    <ellipse cx="26" cy="22" rx="18" ry="18"/>
    <path d="M8 16 Q26 11 44 16"/>
    <path d="M8 22 Q26 22 44 22"/>
    <path d="M8 28 Q26 33 44 28"/>
    <path d="M8 34 Q26 38 44 34"/>
    <path d="M8 10 Q26 6 44 10"/>
  </g>
  <g clip-path="url(#globeClipNav)">
    <path fill="#D4AF37" fill-opacity="0.78" d="M15 13 L18 11 L22 12 L24 15 L22 17 L20 18 L17 17 Z"/>
    <path fill="#D4AF37" fill-opacity="0.86" d="M18 19 L21 18 L23 20 L24 24 L23 28 L21 32 L18 34 L16 31 L17 27 L18 24 Z"/>
    <path fill="#D4AF37" fill-opacity="0.72" d="M28 14 L33 12 L36 14 L36 17 L33 18 L29 17 Z"/>
    <path fill="#D4AF37" fill-opacity="0.72" d="M29 20 L33 19 L36 22 L37 26 L36 30 L33 32 L30 30 L29 26 Z"/>
    <g fill="#F5E27A">
      <path d="M21 25 H31 L29.5 30 H22.5 Z"/>
      <rect x="22" y="20" width="8" height="5"/>
      <polygon points="21,20 26,16.5 31,20"/>
      <rect x="23" y="21" width="1" height="4" fill="#D4AF37"/>
      <rect x="25" y="21" width="1" height="4" fill="#D4AF37"/>
      <rect x="27" y="21" width="1" height="4" fill="#D4AF37"/>
      <rect x="24" y="26" width="4" height="1" fill="#D4AF37"/>
    </g>
  </g>

  <text x="50" y="30" font-family="Georgia, 'Times New Roman', serif" font-size="22" font-weight="700" letter-spacing="3" fill="#D4AF37">HOSPEDAH</text>
</svg>
