<svg xmlns="http://www.w3.org/2000/svg" viewBox="0 0 500 200" preserveAspectRatio="xMidYMid meet" role="img" aria-labelledby="logoTitle logoDesc">
  <title id="logoTitle">HOSPEDAH — Resorts e Experiências Exclusivas</title>
  <desc id="logoDesc">Logo HOSPEDAH com letra H dourada, globo azul marinho com continentes dourados, resort clássico e tagline.</desc>
  <defs>
    <linearGradient id="goldH" x1="0" y1="0" x2="0" y2="1">
      <stop offset="0%" stop-color="#F5E27A"/>
      <stop offset="40%" stop-color="#D4AF37"/>
      <stop offset="60%" stop-color="#8B6914"/>
      <stop offset="80%" stop-color="#D4AF37"/>
      <stop offset="100%" stop-color="#F5E27A"/>
    </linearGradient>
    <linearGradient id="goldGlobe" x1="0" y1="0" x2="1" y2="1">
      <stop offset="0%" stop-color="#0B1C3D"/>
      <stop offset="60%" stop-color="#1a2f5e"/>
      <stop offset="100%" stop-color="#D4AF37"/>
    </linearGradient>
    <radialGradient id="globeBg" cx="38%" cy="30%" r="70%">
      <stop offset="0%" stop-color="#1a2f5e"/>
      <stop offset="100%" stop-color="#0B1C3D"/>
    </radialGradient>
    <linearGradient id="goldRing" x1="0" y1="0" x2="1" y2="1">
      <stop offset="0%" stop-color="#F5E27A"/>
      <stop offset="28%" stop-color="#D4AF37"/>
      <stop offset="50%" stop-color="#8B6914"/>
      <stop offset="72%" stop-color="#D4AF37"/>
      <stop offset="100%" stop-color="#F5E27A"/>
    </linearGradient>
    <linearGradient id="ringH" x1="0" y1="0" x2="1" y2="0">
      <stop offset="0%" stop-color="#F5E27A" stop-opacity="0.3"/>
      <stop offset="30%" stop-color="#D4AF37"/>
      <stop offset="50%" stop-color="#F5E27A"/>
      <stop offset="70%" stop-color="#D4AF37"/>
      <stop offset="100%" stop-color="#F5E27A" stop-opacity="0.3"/>
    </linearGradient>
    <filter id="shadow" x="-30%" y="-30%" width="180%" height="180%">
      <feDropShadow dx="2" dy="4" stdDeviation="3" flood-color="#00000066"/>
    </filter>
    <filter id="glow" x="-40%" y="-40%" width="220%" height="220%">
      <feGaussianBlur in="SourceGraphic" stdDeviation="1.4" result="blurred"/>
      <feComposite in="blurred" in2="SourceGraphic" operator="over"/>
    </filter>
    <filter id="textShadow" x="-10%" y="-30%" width="140%" height="180%">
      <feDropShadow dx="1" dy="1" stdDeviation="1" flood-color="#000000" flood-opacity="0.15"/>
    </filter>
    <clipPath id="globeClip">
      <circle cx="150" cy="86" r="55"/>
    </clipPath>
  </defs>

  <g filter="url(#shadow)">
    <g filter="url(#glow)">
      <path fill="url(#goldH)" d="M52 28 L80 28 L80 76 L112 76 L112 28 L140 28 L140 148 L112 148 L112 102 L80 102 L80 148 L52 148 Z M46 28 L88 28 L82 20 L52 20 Z M104 28 L146 28 L140 20 L110 20 Z M46 148 L52 156 L82 156 L88 148 Z M104 148 L110 156 L140 156 L146 148 Z"/>
    </g>
  </g>

  <g filter="url(#shadow)">
    <circle cx="150" cy="86" r="55" fill="url(#globeBg)" stroke="#D4AF37" stroke-width="2"/>
    <g clip-path="url(#globeClip)" fill="none" stroke="#D4AF37" stroke-opacity="0.4" stroke-width="0.8">
      <ellipse cx="150" cy="86" rx="8" ry="55"/>
      <ellipse cx="150" cy="86" rx="18" ry="55"/>
      <ellipse cx="150" cy="86" rx="28" ry="55"/>
      <ellipse cx="150" cy="86" rx="38" ry="55"/>
      <ellipse cx="150" cy="86" rx="48" ry="55"/>
      <ellipse cx="150" cy="86" rx="55" ry="55"/>
      <path d="M95 64 Q150 48 205 64"/>
      <path d="M95 75 Q150 64 205 75"/>
      <path d="M95 86 Q150 86 205 86"/>
      <path d="M95 97 Q150 108 205 97"/>
      <path d="M95 108 Q150 124 205 108"/>
    </g>

    <g clip-path="url(#globeClip)">
      <path fill="#D4AF37" fill-opacity="0.75" d="M117 52 L126 46 L138 48 L143 55 L139 63 L131 65 L124 62 L119 57 Z"/>
      <path fill="#D4AF37" fill-opacity="0.85" d="M126 68 L136 66 L142 72 L141 82 L136 91 L137 100 L133 110 L126 122 L118 124 L114 116 L116 106 L120 98 L118 89 L121 80 Z"/>
      <path fill="#D4AF37" fill-opacity="0.7" d="M159 54 L170 50 L178 54 L178 61 L170 65 L162 62 Z"/>
      <path fill="#D4AF37" fill-opacity="0.7" d="M162 67 L172 66 L180 72 L183 83 L180 96 L172 104 L164 102 L159 90 L158 79 Z"/>
    </g>

    <!-- Resort building inside globe -->
    <g clip-path="url(#globeClip)" fill="#F5E27A">
      <path d="M133 97 H167 L163 110 H137 Z"/>
      <rect x="137" y="82" width="26" height="15"/>
      <polygon points="135,82 150,72 165,82"/>
      <rect x="139" y="84" width="3" height="13" fill="#D4AF37"/>
      <rect x="144" y="84" width="3" height="13" fill="#D4AF37"/>
      <rect x="153" y="84" width="3" height="13" fill="#D4AF37"/>
      <rect x="158" y="84" width="3" height="13" fill="#D4AF37"/>
      <rect x="148.5" y="88" width="3" height="9" fill="#D4AF37"/>
      <rect x="140" y="100" width="20" height="2" fill="#D4AF37"/>
      <rect x="145" y="102" width="10" height="3" fill="#D4AF37"/>
    </g>

    <circle cx="150" cy="86" r="55" fill="none" stroke="url(#goldRing)" stroke-width="3"/>
    <circle cx="150" cy="86" r="53" fill="none" stroke="url(#goldGlobe)" stroke-width="1" opacity="0.8"/>

    <!-- Equatorial orbital ring -->
    <ellipse cx="150" cy="86" rx="63" ry="10" fill="none" stroke="url(#ringH)" stroke-width="5" opacity="0.9"/>
    <ellipse cx="150" cy="86" rx="63" ry="10" fill="none" stroke="#F5E27A" stroke-width="1.5" opacity="0.5"/>
  </g>

  <text x="230" y="96" font-family="Georgia, 'Times New Roman', serif" font-weight="700" font-size="52" letter-spacing="8" fill="url(#goldH)" filter="url(#textShadow)">HOSPEDAH</text>

  <g font-family="Georgia, 'Times New Roman', serif" fill="#D4AF37" text-anchor="middle">
    <text x="376" y="141" font-style="italic" font-size="16" letter-spacing="2">Sua experiência começa aqui</text>
    <text x="248" y="141" font-size="18" fill="url(#goldH)">→</text>
    <text x="504" y="141" font-size="18" fill="url(#goldH)">←</text>
  </g>
</svg>
