<svg xmlns="http://www.w3.org/2000/svg" width="580" height="160" viewBox="0 0 580 160" preserveAspectRatio="xMidYMid meet" role="img" aria-labelledby="logoTitle logoDesc">
  <title id="logoTitle">HOSPEDAH — Resorts e Experiências Exclusivas</title>
  <desc id="logoDesc">Logo com H dourado, globo azul com continentes dourados, resort interno, nome HOSPEDAH em dourado e tagline.</desc>
  <defs>
    <linearGradient id="goldMetal" x1="0%" y1="0%" x2="100%" y2="100%">
      <stop offset="0%" stop-color="#B8860B"/>
      <stop offset="30%" stop-color="#F2D06B"/>
      <stop offset="52%" stop-color="#FFF1B0"/>
      <stop offset="72%" stop-color="#D4AF37"/>
      <stop offset="100%" stop-color="#9B6C08"/>
    </linearGradient>
    <linearGradient id="goldText" x1="0%" y1="0%" x2="0%" y2="100%">
      <stop offset="0%" stop-color="#FFF6CC"/>
      <stop offset="28%" stop-color="#F2D06B"/>
      <stop offset="52%" stop-color="#D4AF37"/>
      <stop offset="76%" stop-color="#B8860B"/>
      <stop offset="100%" stop-color="#9B6C08"/>
    </linearGradient>
    <linearGradient id="goldSoft" x1="0%" y1="0%" x2="100%" y2="0%">
      <stop offset="0%" stop-color="#F7DF8A"/>
      <stop offset="100%" stop-color="#D4AF37"/>
    </linearGradient>
    <linearGradient id="navyDepth" x1="20%" y1="10%" x2="80%" y2="90%">
      <stop offset="0%" stop-color="#1E3870"/>
      <stop offset="55%" stop-color="#0E2150"/>
      <stop offset="100%" stop-color="#071020"/>
    </linearGradient>
    <filter id="softShadow" x="-30%" y="-30%" width="160%" height="180%">
      <feDropShadow dx="0" dy="2" stdDeviation="2.4" flood-color="#091429" flood-opacity="0.38"/>
    </filter>
    <filter id="textShadow" x="-5%" y="-20%" width="120%" height="160%">
      <feDropShadow dx="0" dy="3" stdDeviation="3.5" flood-color="#000000" flood-opacity="0.50"/>
    </filter>
    <!-- Clip to the globe circle (local coords of the globe group: center 42,38 r=36) -->
    <clipPath id="globeClip">
      <circle cx="42" cy="38" r="36"/>
    </clipPath>
  </defs>

  <!-- H legs rendered FIRST (behind globe) -->
  <g filter="url(#softShadow)">
    <path d="M24 22h16v94H24z" fill="url(#goldMetal)"/>
    <path d="M80 22h16v94H80z" fill="url(#goldMetal)"/>
    <!-- Subtle edge highlights -->
    <path d="M24 22h16v6H24zm0 88h16v6H24zm56-88h16v6H80zm0 88h16v6H80z" fill="#FFF1B0" opacity="0.45"/>
  </g>

  <!-- Globe rendered SECOND (in front of H legs) — centered at absolute (60,69) via translate(18,31) -->
  <g transform="translate(18 31)" filter="url(#softShadow)">
    <!-- Base sphere with richer depth gradient -->
    <circle cx="42" cy="38" r="36" fill="url(#navyDepth)"/>

    <!-- Latitude / longitude grid -->
    <g stroke="url(#goldMetal)" fill="none">
      <!-- Tropic of Cancer / Capricorn -->
      <line x1="11" y1="27" x2="73" y2="27" stroke-width="0.65" opacity="0.45"/>
      <line x1="11" y1="49" x2="73" y2="49" stroke-width="0.65" opacity="0.45"/>
      <!-- Arctic / Antarctic circles -->
      <line x1="22" y1="16" x2="62" y2="16" stroke-width="0.55" opacity="0.35"/>
      <line x1="22" y1="60" x2="62" y2="60" stroke-width="0.55" opacity="0.35"/>
      <!-- Longitude ellipses -->
      <ellipse cx="42" cy="38" rx="32" ry="10" stroke-width="0.65" opacity="0.4"/>
      <ellipse cx="42" cy="38" rx="32" ry="22" stroke-width="0.65" opacity="0.4"/>
      <ellipse cx="42" cy="38" rx="18" ry="36" stroke-width="0.65" opacity="0.45"/>
      <!-- Central meridian -->
      <line x1="42" y1="2" x2="42" y2="74" stroke-width="0.65" opacity="0.45"/>
    </g>

    <!-- Equator as bold H-crossbar band (drawn over grid, under continents) -->
    <line x1="6" y1="38" x2="78" y2="38" stroke="url(#goldMetal)" stroke-width="6.5" opacity="1" clip-path="url(#globeClip)"/>

    <!-- Continents (gold) — more realistic positioning -->
    <g fill="url(#goldSoft)">
      <!-- North America -->
      <path d="M20 18l5-3 8 1 3 6 1 8-4 5-8 2-5-3-1-8z"/>
      <!-- South America -->
      <path d="M27 37l4-1 6 3 2 8-3 9-6 4-5-1-2-6 4-11z"/>
      <!-- Europe -->
      <path d="M47 17l5-2 4 3-1 6-5 2-5-1 2-5z"/>
      <!-- Africa -->
      <path d="M47 29l6 0 5 5 2 8-4 9-6 2-4-4-1-10z"/>
      <!-- Asia (main body) -->
      <path d="M58 14l9-2 5 3-1 7-7 3-6-1-1-6z"/>
      <!-- SE Asia hint -->
      <path d="M64 28l5-1 3 4 0 4-3 3-4-1-1-5z"/>
    </g>

    <!-- Hotel / resort building silhouette in globe centre -->
    <g fill="url(#goldMetal)">
      <!-- Side wings (below crossbar) -->
      <rect x="22" y="41" width="8" height="11"/>
      <rect x="54" y="41" width="8" height="11"/>
      <!-- Main facade (straddles crossbar) -->
      <rect x="27" y="39" width="30" height="13"/>
      <!-- Central tower (rises above crossbar) -->
      <rect x="35" y="29" width="14" height="11"/>
      <!-- Pediment / triangular roof -->
      <polygon points="34,29 50,29 42,22"/>
      <!-- Main facade windows (navy) -->
      <rect x="29" y="41" width="4" height="6" fill="#091429" rx="0.5"/>
      <rect x="35" y="41" width="4" height="6" fill="#091429" rx="0.5"/>
      <rect x="41" y="41" width="4" height="6" fill="#091429" rx="0.5"/>
      <rect x="47" y="41" width="4" height="6" fill="#091429" rx="0.5"/>
      <!-- Tower windows (navy) -->
      <rect x="37" y="31" width="3" height="4" fill="#091429" rx="0.5"/>
      <rect x="44" y="31" width="3" height="4" fill="#091429" rx="0.5"/>
    </g>

    <!-- Globe border ring drawn last -->
    <circle cx="42" cy="38" r="36" fill="none" stroke="url(#goldMetal)" stroke-width="2.5"/>
  </g>

  <!-- HOSPEDAH — font-size 52, viewBox 580 wide so final H is never clipped -->
  <text x="150" y="74" fill="url(#goldText)" font-family="Georgia, 'Times New Roman', serif" font-size="52" font-weight="700" letter-spacing="2" filter="url(#textShadow)" paint-order="stroke fill" stroke="#5a3a00" stroke-width="0.6" stroke-linejoin="round">HOSPEDAH</text>

  <!-- Tagline — centred under HOSPEDAH text (~x=305) with symmetric dashes -->
  <g fill="url(#goldMetal)" font-family="Georgia, 'Times New Roman', serif" font-size="17" font-style="italic" text-anchor="middle">
    <text x="305" y="108">Sua experiência começa aqui.</text>
    <text x="158" y="108">—</text>
    <text x="452" y="108">—</text>
  </g>

</svg>
