<svg xmlns="http://www.w3.org/2000/svg" width="500" height="160" viewBox="0 0 500 160" preserveAspectRatio="xMidYMid meet" role="img" aria-labelledby="logoTitle logoDesc">
  <title id="logoTitle">HOSPEDAH — Resorts e Experiências Exclusivas</title>
  <desc id="logoDesc">Logo com H dourado, globo azul com continentes dourados, resort interno, nome HOSPEDAH em dourado e tagline.</desc>
  <defs>
    <linearGradient id="goldMetal" x1="0%" y1="0%" x2="100%" y2="100%">
      <stop offset="0%" stop-color="#B8860B"/>
      <stop offset="30%" stop-color="#F2D06B"/>
      <stop offset="52%" stop-color="#FFF1B0"/>
      <stop offset="72%" stop-color="#D4AF37"/>
      <stop offset="100%" stop-color="#9B6C08"/>
    </linearGradient>
    <linearGradient id="goldText" x1="0%" y1="0%" x2="0%" y2="100%">
      <stop offset="0%" stop-color="#FFF6CC"/>
      <stop offset="28%" stop-color="#F2D06B"/>
      <stop offset="52%" stop-color="#D4AF37"/>
      <stop offset="76%" stop-color="#B8860B"/>
      <stop offset="100%" stop-color="#9B6C08"/>
    </linearGradient>
    <linearGradient id="goldSoft" x1="0%" y1="0%" x2="100%" y2="0%">
      <stop offset="0%" stop-color="#F7DF8A"/>
      <stop offset="100%" stop-color="#D4AF37"/>
    </linearGradient>
    <linearGradient id="navyDepth" x1="0%" y1="0%" x2="100%" y2="100%">
      <stop offset="0%" stop-color="#1A2F5E"/>
      <stop offset="100%" stop-color="#0B1C3D"/>
    </linearGradient>
    <filter id="softShadow" x="-30%" y="-30%" width="160%" height="180%">
      <feDropShadow dx="0" dy="2" stdDeviation="2.4" flood-color="#091429" flood-opacity="0.38"/>
    </filter>
    <filter id="textShadow" x="-5%" y="-20%" width="115%" height="160%">
      <feDropShadow dx="0" dy="3" stdDeviation="3.5" flood-color="#000000" flood-opacity="0.50"/>
    </filter>
  </defs>

  <g filter="url(#softShadow)">
    <path d="M24 24h16v38h40V24h16v90H80V78H40v36H24z" fill="url(#goldMetal)"/>
    <path d="M24 24h16v6H24zm56 0h16v6H80zm0 84h16v6H80zm-56 0h16v6H24z" fill="#FFF1B0" opacity="0.45"/>
  </g>

  <g transform="translate(65 14)" filter="url(#softShadow)">
    <circle cx="42" cy="38" r="34" fill="url(#navyDepth)" stroke="url(#goldMetal)" stroke-width="1.6"/>

    <g stroke="url(#goldMetal)" stroke-linecap="round" fill="none" opacity="0.55">
      <ellipse cx="42" cy="38" rx="30" ry="10" stroke-width="0.8"/>
      <ellipse cx="42" cy="38" rx="30" ry="20" stroke-width="0.8"/>
      <ellipse cx="42" cy="38" rx="17" ry="34" stroke-width="0.8"/>
      <line x1="8" y1="38" x2="76" y2="38" stroke-width="0.7"/>
    </g>

    <g fill="url(#goldSoft)">
      <path d="M27 25l7-7 8 2 2 8-5 6-9-1z"/>
      <path d="M39 39l8-3 7 3 2 7-9 5-10-2z"/>
      <path d="M30 44l5 4-1 8-6 5-5-4 2-8z"/>
    </g>

    <path d="M27 56h30v9H27zm2.4 0h5.2V47h-5.2zm8.2 0h8.8V43h-8.8zm11.8 0h5.2V49h-5.2zM32 47h4.8l-2.4-5.5zM41.8 43h7l-3.5-6.2zM51.5 49h4.5l-2.2-4.5z" fill="url(#goldMetal)"/>
  </g>

  <text x="155" y="74" fill="url(#goldText)" font-family="Georgia, 'Times New Roman', serif" font-size="54" font-weight="700" letter-spacing="2" filter="url(#textShadow)" paint-order="stroke fill" stroke="#5a3a00" stroke-width="0.6" stroke-linejoin="round">HOSPEDAH</text>

  <g fill="url(#goldMetal)" font-family="Georgia, 'Times New Roman', serif" font-size="17" font-style="italic" text-anchor="middle">
    <text x="325" y="108">Sua experiência começa aqui.</text>
    <text x="167" y="108">—</text>
    <text x="483" y="108">—</text>
  </g>

</svg>
