<svg xmlns="http://www.w3.org/2000/svg" viewBox="0 0 512 512" width="512" height="512">
  <title>HOSPEDAH</title>
  <rect width="512" height="512" rx="100" ry="100" fill="#0B1C3D"/>
  <!-- H + Globe: favicon design scaled to fill icon -->
  <svg x="30" y="30" width="452" height="452" viewBox="0 0 32 32" preserveAspectRatio="xMidYMid meet">
    <defs>
      <linearGradient id="goldI512" x1="0" y1="0" x2="0" y2="1">
        <stop offset="0%" stop-color="#F5E27A"/>
        <stop offset="40%" stop-color="#D4AF37"/>
        <stop offset="60%" stop-color="#8B6914"/>
        <stop offset="80%" stop-color="#D4AF37"/>
        <stop offset="100%" stop-color="#F5E27A"/>
      </linearGradient>
      <radialGradient id="oceanI512" cx="36%" cy="28%" r="72%">
        <stop offset="0%" stop-color="#243a6e"/>
        <stop offset="45%" stop-color="#1a2f5e"/>
        <stop offset="100%" stop-color="#0B1C3D"/>
      </radialGradient>
      <radialGradient id="oceanI512HL" cx="34%" cy="26%" r="52%">
        <stop offset="0%" stop-color="#ffffff" stop-opacity="0.13"/>
        <stop offset="100%" stop-color="#ffffff" stop-opacity="0"/>
      </radialGradient>
      <linearGradient id="ringI512" x1="0" y1="0" x2="1" y2="0">
        <stop offset="0%" stop-color="#F5E27A" stop-opacity="0.3"/>
        <stop offset="30%" stop-color="#D4AF37"/>
        <stop offset="50%" stop-color="#F5E27A"/>
        <stop offset="70%" stop-color="#D4AF37"/>
        <stop offset="100%" stop-color="#F5E27A" stop-opacity="0.3"/>
      </linearGradient>
      <clipPath id="clipI512">
        <circle cx="18" cy="16" r="12"/>
      </clipPath>
    </defs>
    <path fill="url(#goldI512)" d="M1 4 H6 V13 H12 V4 H17 V28 H12 V18 H6 V28 H1 Z M0 4 H7 L6 2 H1 Z M10 4 H17 L16 2 H11 Z M0 28 L1 30 H6 L7 28 Z M10 28 L11 30 H16 L17 28 Z"/>
    <circle cx="18" cy="16" r="12" fill="url(#oceanI512)" stroke="#D4AF37" stroke-width="1"/>
    <g clip-path="url(#clipI512)" fill="none" stroke="#D4AF37" stroke-opacity="0.35" stroke-width="0.4">
      <ellipse cx="18" cy="16" rx="2.2" ry="12"/>
      <ellipse cx="18" cy="16" rx="4.8" ry="12"/>
      <ellipse cx="18" cy="16" rx="7.6" ry="12"/>
      <ellipse cx="18" cy="16" rx="10" ry="12"/>
      <path d="M6 11 Q18 8 30 11"/>
      <path d="M6 16 Q18 16 30 16"/>
      <path d="M6 21 Q18 24 30 21"/>
    </g>
    <!-- South America -->
    <g clip-path="url(#clipI512)">
      <path fill="#D4AF37" fill-opacity="0.82" d="M9.2 8.2 L10.8 6.9 L12.9 7.1 L14.6 8.5 L15.0 9.4 L14.6 10.7 L13.7 11.5 L13.5 12.8 L12.9 14.1 L12.2 15.9 L11.7 18.0 L11.1 20.7 L10.4 22.4 L9.5 22.6 L8.9 21.3 L9.1 19.3 L9.8 17.4 L9.3 15.5 L8.7 13.5 L8.5 11.4 L8.9 9.4 Z"/>
      <path fill="#D4AF37" fill-opacity="0.68" d="M8.0 8.0 L9.3 7.2 L10.1 7.5 L10.1 8.7 L8.9 9.1 L7.8 8.7 Z"/>
    </g>
    <!-- Africa -->
    <g clip-path="url(#clipI512)">
      <path fill="#D4AF37" fill-opacity="0.80" d="M18.7 5.9 L21.1 5.1 L22.9 6.0 L24.0 7.7 L24.4 9.5 L24.0 11.5 L23.8 13.5 L23.1 15.5 L22.1 17.7 L20.8 19.9 L19.9 21.0 L18.7 20.6 L18.0 18.7 L18.0 16.6 L17.4 14.6 L17.3 12.5 L17.8 10.0 L17.5 7.8 Z"/>
      <path fill="#D4AF37" fill-opacity="0.72" d="M23.7 12.8 L25.4 11.9 L26.2 12.8 L24.8 14.0 L23.7 14.0 Z"/>
    </g>
    <!-- Classical building -->
    <g clip-path="url(#clipI512)" fill="#F5E27A">
      <rect x="13.1" y="19.7" width="9.8" height="1.2"/>
      <rect x="13.6" y="18.6" width="8.8" height="1.2"/>
      <rect x="14.0" y="15.2" width="8.0" height="3.5"/>
      <rect x="14.2" y="12.0" width="7.6" height="3.2"/>
      <polygon points="13.4,12.0 18,9.0 22.6,12.0"/>
      <rect x="14.0" y="15.2" width="8.0" height="0.4" fill="#8B6914"/>
      <rect x="14.2" y="12.0" width="7.6" height="0.4" fill="#8B6914"/>
      <rect x="14.2" y="15.2" width="0.65" height="3.5" fill="#D4AF37"/>
      <rect x="15.6" y="15.2" width="0.65" height="3.5" fill="#D4AF37"/>
      <rect x="17.0" y="15.2" width="0.65" height="3.5" fill="#D4AF37"/>
      <rect x="18.4" y="15.2" width="0.65" height="3.5" fill="#D4AF37"/>
      <rect x="19.8" y="15.2" width="0.65" height="3.5" fill="#D4AF37"/>
      <rect x="21.2" y="15.2" width="0.65" height="3.5" fill="#D4AF37"/>
      <rect x="15.0" y="12.5" width="1.0" height="1.8" fill="#D4AF37"/>
      <rect x="17.0" y="12.5" width="1.0" height="1.8" fill="#D4AF37"/>
      <rect x="19.0" y="12.5" width="1.0" height="1.8" fill="#D4AF37"/>
      <rect x="21.0" y="12.5" width="1.0" height="1.8" fill="#D4AF37"/>
      <rect x="17.3" y="17.0" width="1.4" height="1.7" fill="#D4AF37"/>
    </g>
    <!-- 3D highlight -->
    <circle cx="18" cy="16" r="12" fill="url(#oceanI512HL)"/>
    <!-- Equatorial orbital ring -->
    <ellipse cx="18" cy="16" rx="14" ry="2.5" fill="none" stroke="url(#ringI512)" stroke-width="1.8" opacity="0.9"/>
    <ellipse cx="18" cy="16" rx="14" ry="2.5" fill="none" stroke="#F5E27A" stroke-width="0.6" opacity="0.5"/>
  </svg>
</svg>
