<svg xmlns="http://www.w3.org/2000/svg" viewBox="0 0 192 192" width="192" height="192">
  <title>HOSPEDAH</title>
  <rect width="192" height="192" rx="38" ry="38" fill="#0B1C3D"/>
  <!-- H + Globe: favicon design scaled to fill icon -->
  <svg x="10" y="10" width="172" height="172" viewBox="0 0 32 32" preserveAspectRatio="xMidYMid meet">
    <defs>
      <linearGradient id="goldI192" x1="0" y1="0" x2="0" y2="1">
        <stop offset="0%" stop-color="#F5E27A"/>
        <stop offset="40%" stop-color="#D4AF37"/>
        <stop offset="60%" stop-color="#8B6914"/>
        <stop offset="80%" stop-color="#D4AF37"/>
        <stop offset="100%" stop-color="#F5E27A"/>
      </linearGradient>
      <radialGradient id="oceanI192" cx="38%" cy="30%" r="70%">
        <stop offset="0%" stop-color="#1a2f5e"/>
        <stop offset="100%" stop-color="#0B1C3D"/>
      </radialGradient>
      <clipPath id="clipI192">
        <circle cx="18" cy="16" r="12"/>
      </clipPath>
    </defs>
    <path fill="url(#goldI192)" d="M1 4 H6 V13 H12 V4 H17 V28 H12 V18 H6 V28 H1 Z M0 4 H7 L6 2 H1 Z M10 4 H17 L16 2 H11 Z M0 28 L1 30 H6 L7 28 Z M10 28 L11 30 H16 L17 28 Z"/>
    <circle cx="18" cy="16" r="12" fill="url(#oceanI192)" stroke="#D4AF37" stroke-width="1"/>
    <g clip-path="url(#clipI192)" fill="none" stroke="#D4AF37" stroke-opacity="0.45" stroke-width="0.45">
      <ellipse cx="18" cy="16" rx="3" ry="12"/>
      <ellipse cx="18" cy="16" rx="6" ry="12"/>
      <ellipse cx="18" cy="16" rx="9" ry="12"/>
      <ellipse cx="18" cy="16" rx="12" ry="12"/>
      <path d="M6 11 Q18 8 30 11"/>
      <path d="M6 16 Q18 16 30 16"/>
      <path d="M6 21 Q18 24 30 21"/>
    </g>
    <g clip-path="url(#clipI192)">
      <path fill="#D4AF37" fill-opacity="0.8" d="M10 10 L12 9 L15 10 L16 12 L14 13 L11 12 Z"/>
      <path fill="#D4AF37" fill-opacity="0.86" d="M12 14 L15 13 L16 15 L16 18 L15 21 L13 23 L11.5 21 L12 18 Z"/>
      <path fill="#D4AF37" fill-opacity="0.72" d="M18.5 11 L21.5 10 L24 11 L24 13 L21.5 14 L19 13 Z"/>
      <path fill="#D4AF37" fill-opacity="0.72" d="M19 15 L22 15 L24 17 L24.5 20 L23 22 L20 23 L18.5 21 L18.5 18 Z"/>
      <g fill="#F5E27A">
        <path d="M14 18 H20 L19 21 H15 Z"/>
        <rect x="14.5" y="15.5" width="5" height="2.5"/>
        <polygon points="14.5,15.5 17,13.7 19.5,15.5"/>
        <rect x="15" y="16" width="0.8" height="2" fill="#D4AF37"/>
        <rect x="16.6" y="16" width="0.8" height="2" fill="#D4AF37"/>
        <rect x="18.2" y="16" width="0.8" height="2" fill="#D4AF37"/>
      </g>
    </g>
  </svg>
</svg>
